# xmcd CD database file generated by Grip 3.3.1
# 
# Track frame offsets:
#       150
#       15910
#       29352
#       44368
#       59857
#       74476
#       90677
#       107376
#       125941
# 
# Disc length: 1944 seconds
# 
# Revision: 6
# Processed by: cddbd v1.5.2PL0 Copyright (c) Steve Scherf et al.
# Submitted via: Grip 3.3.1
# 
DISCID=7c079609
DTITLE=Chris Stapleton - From a Room
DYEAR=2017
DGENRE=Country
TTITLE0=Millionaire
TTITLE1=Hard Livin'
TTITLE2=Scarecrow in the Garden
TTITLE3=Nobody's Lonely Tonight
TTITLE4=Tryin' to Untangle My Mind
TTITLE5=A Simple Song
TTITLE6=Midnight Train to Memphis
TTITLE7=Drunkard's Prayer
TTITLE8=Friendship
EXTD=YEAR: 2017
EXTT0=
EXTT1=
EXTT2=
EXTT3=
EXTT4=
EXTT5=
EXTT6=
EXTT7=
EXTT8=
PLAYORDER=
